<svg xmlns="http://www.w3.org/2000/svg" xmlns:xlink="http://www.w3.org/1999/xlink" id="Layer_1" width="92.75" height="50.75" x="0" y="0" enable-background="new 0 0 92.75 50.75" version="1.1" viewBox="0 0 92.75 50.75" xml:space="preserve"><g><path fill="#5C5151" d="M46.6,32.524c-7.271,0-13.198-5.917-13.198-13.186V0.696c0-0.153,0.129-0.279,0.287-0.279h14.335 c0.15,0,0.276,0.126,0.276,0.279v23.262c0,0.119-0.065,0.213-0.162,0.258c-0.036,0.015-0.083,0.028-0.114,0.028 c-0.063,0-0.148-0.029-0.19-0.09l-2.868-2.86c-0.061-0.058-0.091-0.124-0.091-0.197V3.844h-8.04v15.494 c0,5.377,4.377,9.752,9.766,9.752c5.37,0,9.747-4.375,9.747-9.752V3.843c0-0.112,0.064-0.215,0.182-0.258 c0.031-0.014,0.061-0.021,0.094-0.021c0.088,0,0.148,0.026,0.209,0.081l2.865,2.865c0.043,0.055,0.072,0.128,0.072,0.2v12.629 C59.769,26.607,53.864,32.524,46.6,32.524z"/><g><path fill="#5C5151" d="M89.099,38.444c0.09-0.198,0.211-0.377,0.363-0.524c0.15-0.144,0.332-0.263,0.539-0.346 c0.197-0.084,0.41-0.128,0.641-0.128c0.225,0,0.443,0.044,0.645,0.128c0.203,0.083,0.381,0.203,0.533,0.346 c0.15,0.147,0.268,0.326,0.352,0.524c0.09,0.199,0.137,0.423,0.137,0.652c0,0.24-0.047,0.462-0.137,0.664 c-0.084,0.202-0.201,0.378-0.352,0.53c-0.152,0.151-0.33,0.263-0.533,0.348c-0.201,0.079-0.42,0.123-0.645,0.123 c-0.23,0-0.443-0.044-0.641-0.123c-0.207-0.085-0.389-0.197-0.539-0.348c-0.152-0.151-0.273-0.328-0.363-0.53 c-0.086-0.201-0.125-0.424-0.125-0.664C88.974,38.867,89.013,38.643,89.099,38.444z M89.372,39.663 c0.068,0.172,0.17,0.324,0.295,0.447c0.127,0.133,0.262,0.228,0.43,0.302c0.166,0.074,0.348,0.107,0.545,0.107 c0.191,0,0.373-0.033,0.543-0.107c0.16-0.074,0.305-0.169,0.426-0.302c0.123-0.124,0.221-0.275,0.289-0.447 c0.074-0.175,0.105-0.358,0.105-0.567c0-0.199-0.031-0.381-0.105-0.552c-0.068-0.174-0.166-0.325-0.289-0.448 c-0.121-0.122-0.266-0.226-0.426-0.299c-0.17-0.067-0.352-0.108-0.543-0.108c-0.197,0-0.379,0.042-0.545,0.108 c-0.168,0.073-0.303,0.178-0.43,0.299c-0.125,0.123-0.227,0.274-0.295,0.448c-0.063,0.171-0.096,0.353-0.096,0.552 C89.276,39.305,89.31,39.488,89.372,39.663z M90.743,38.133c0.232,0,0.406,0.047,0.514,0.143c0.111,0.091,0.172,0.229,0.172,0.412 c0,0.18-0.057,0.303-0.15,0.388c-0.094,0.08-0.215,0.126-0.363,0.14l0.551,0.86h-0.324l-0.529-0.837h-0.318v0.837h-0.301v-1.942 H90.743z M90.612,38.994c0.066,0,0.131-0.003,0.191-0.006c0.061-0.001,0.111-0.015,0.164-0.038 c0.047-0.021,0.082-0.053,0.107-0.096c0.031-0.043,0.051-0.103,0.051-0.181c0-0.063-0.02-0.112-0.041-0.154 c-0.02-0.036-0.055-0.065-0.1-0.088c-0.041-0.017-0.088-0.033-0.133-0.042c-0.059-0.005-0.109-0.007-0.15-0.007h-0.408v0.613 H90.612z"/></g><path fill="#5C5151" d="M13.401,39.12c-0.106-0.018-0.22-0.039-0.335-0.056l-0.214-0.043l0.029,0.217 c0.043,0.31,0.07,0.882,0.081,1.703c0.008,0.834,0.014,2.023,0.014,3.56c0,0.333-0.006,0.702-0.014,1.102 c-0.011,0.394-0.05,0.789-0.115,1.18c-0.061,0.392-0.162,0.77-0.306,1.125c-0.14,0.348-0.331,0.662-0.578,0.924 c-0.242,0.267-0.562,0.481-0.946,0.646c-0.384,0.167-0.868,0.248-1.442,0.248c-0.588,0-1.085-0.068-1.475-0.212 c-0.391-0.137-0.719-0.325-0.973-0.566c-0.249-0.237-0.448-0.521-0.585-0.843c-0.144-0.323-0.245-0.671-0.31-1.034 c-0.064-0.374-0.1-0.754-0.11-1.135c-0.013-0.394-0.018-0.772-0.018-1.141c0-0.607,0.005-1.19,0.018-1.751 c0.012-0.565,0.028-1.088,0.047-1.573c0.024-0.489,0.044-0.923,0.066-1.313c0.021-0.38,0.042-0.686,0.066-0.927l0.017-0.207 l-0.2,0.04C6,39.081,5.883,39.102,5.773,39.118c-0.226,0.035-0.457,0.026-0.736-0.001c-0.146-0.017-0.283-0.036-0.412-0.053 l-0.191-0.031l0.009,0.191c0.021,0.49,0.044,1.082,0.063,1.789c0.024,0.717,0.034,1.532,0.034,2.414 c0,0.404-0.013,0.804-0.039,1.205c-0.029,0.396-0.043,0.854-0.043,1.364c0,1.633,0.39,2.845,1.152,3.608 c0.765,0.765,1.995,1.15,3.658,1.15c0.748,0,1.426-0.106,2.01-0.318c0.592-0.212,1.093-0.533,1.501-0.945 c0.401-0.417,0.716-0.926,0.938-1.523c0.214-0.583,0.332-1.26,0.342-2.002c0.008-0.592,0.026-1.208,0.051-1.843 c0.017-0.635,0.04-1.249,0.063-1.85c0.02-0.603,0.045-1.166,0.076-1.692c0.038-0.518,0.069-0.972,0.103-1.351l0.017-0.227 l-0.219,0.063C13.845,39.154,13.631,39.154,13.401,39.12z"/><path fill="#5C5151" d="M24.411,49.618c-0.245-0.293-0.514-0.611-0.79-0.961c-0.279-0.355-0.575-0.724-0.879-1.105 c-0.303-0.388-0.601-0.754-0.878-1.109c-0.28-0.352-0.54-0.674-0.761-0.962c-0.146-0.186-0.269-0.347-0.381-0.48 c0.26-0.049,0.533-0.125,0.813-0.23c0.396-0.137,0.781-0.334,1.122-0.591c0.357-0.255,0.66-0.58,0.902-0.969 c0.245-0.396,0.366-0.878,0.366-1.422c0-0.515-0.092-0.952-0.28-1.299c-0.2-0.348-0.455-0.63-0.784-0.845 c-0.328-0.207-0.71-0.361-1.144-0.453c-0.708-0.146-1.522-0.158-2.271-0.093c-0.602,0.057-1.235,0.049-1.826,0.017 c-0.303-0.017-0.614-0.035-0.929-0.052l-0.176-0.015l0.012,0.177c0.032,0.716,0.063,1.415,0.088,2.105 c0.024,0.715,0.04,1.421,0.04,2.096v2.797c0,0.68-0.016,1.391-0.04,2.108c-0.024,0.694-0.055,1.376-0.088,2.049l-0.012,0.177 l0.178-0.015c0.487-0.039,1.083-0.039,1.57,0l0.179,0.015l-0.008-0.179c-0.033-0.671-0.063-1.353-0.088-2.047 c-0.027-0.698-0.046-1.408-0.046-2.108v-1.029h0.393c0.333,0.348,0.701,0.771,1.091,1.252c0.419,0.515,0.831,1.032,1.231,1.547 c0.398,0.52,0.762,1.006,1.094,1.461c0.329,0.453,0.576,0.795,0.735,1.021l0.053,0.079l0.097-0.013 c0.145-0.021,0.297-0.03,0.448-0.03h0.965c0.155,0,0.307,0.009,0.461,0.03l0.473,0.061l-0.33-0.326 C24.861,50.128,24.664,49.916,24.411,49.618z M21.202,43.79c-0.287,0.179-0.606,0.305-0.946,0.377 c-0.588,0.122-1.163,0.122-1.602,0.094c-0.121-0.005-0.24-0.019-0.353-0.036v-0.799c0-0.563,0.016-1.153,0.031-1.747l0.06-1.641 c0.146-0.013,0.311-0.026,0.498-0.037c0.435-0.03,1.097-0.076,1.763,0.061c0.271,0.053,0.52,0.155,0.758,0.307 c0.222,0.15,0.418,0.358,0.554,0.604c0.146,0.255,0.221,0.585,0.221,0.974c0,0.457-0.097,0.837-0.283,1.127 C21.718,43.375,21.479,43.613,21.202,43.79z"/><path fill="#5C5151" d="M32.896,45.011c-0.433-0.331-0.979-0.548-1.644-0.662c0.523-0.188,0.973-0.457,1.35-0.791 c0.527-0.484,0.8-1.159,0.8-1.998c0-0.484-0.092-0.893-0.3-1.224c-0.187-0.322-0.458-0.588-0.792-0.774 c-0.331-0.192-0.724-0.32-1.148-0.394c-0.668-0.119-1.453-0.139-2.211-0.072c-0.58,0.057-1.132,0.052-1.703,0.017 c-0.294-0.017-0.581-0.034-0.868-0.052l-0.175-0.015l0.017,0.177c0.032,0.689,0.062,1.385,0.086,2.079 c0.024,0.673,0.04,1.38,0.04,2.107v2.796c0,0.726-0.016,1.431-0.04,2.102c-0.024,0.687-0.054,1.379-0.086,2.07l-0.017,0.177 l0.176-0.015c0.261-0.021,0.513-0.03,0.783-0.03h0.788c0.255,0,0.516,0.007,0.785,0.015c0.76,0.033,1.515,0.023,2.269-0.142 c0.489-0.105,0.95-0.292,1.367-0.557c0.424-0.263,0.763-0.618,1.029-1.047c0.27-0.438,0.393-0.979,0.393-1.614 C33.794,46.189,33.491,45.464,32.896,45.011z M31.416,42.917c-0.164,0.278-0.38,0.494-0.649,0.661 c-0.275,0.167-0.604,0.289-0.957,0.361c-0.354,0.074-0.732,0.111-1.101,0.111h-0.721v-1.063c0-0.52,0.021-1.042,0.035-1.533 l0.058-1.419c0.113-0.013,0.244-0.024,0.386-0.033c0.421-0.033,1.048-0.045,1.624,0.045c0.283,0.045,0.556,0.136,0.794,0.272 c0.216,0.136,0.404,0.321,0.549,0.563c0.151,0.239,0.23,0.572,0.23,0.982C31.664,42.288,31.583,42.642,31.416,42.917z M31.979,47.101c0,0.413-0.061,0.786-0.184,1.104c-0.146,0.318-0.321,0.59-0.543,0.808c-0.214,0.221-0.484,0.386-0.787,0.494 c-0.563,0.212-1.207,0.182-1.788,0.146c-0.216-0.011-0.422-0.025-0.595-0.041l-0.059-1.508c-0.014-0.53-0.035-1.079-0.035-1.635 v-1.502h0.573c0.541,0,1.025,0.033,1.449,0.095s0.787,0.177,1.088,0.333c0.279,0.157,0.502,0.363,0.663,0.637 C31.916,46.304,31.979,46.666,31.979,47.101z"/><path fill="#5C5151" d="M44.394,49.187c-0.216-0.498-0.458-1.067-0.731-1.701c-0.281-0.633-0.574-1.319-0.896-2.053 c-0.314-0.739-0.619-1.48-0.947-2.23c-0.306-0.746-0.61-1.487-0.913-2.216l-0.895-2.135h-0.521l-0.036,0.091 c-0.848,1.938-1.692,3.847-2.513,5.721c-0.832,1.854-1.695,3.757-2.572,5.659l-0.121,0.253l0.272-0.033 c0.362-0.038,0.817-0.038,1.179,0l0.123,0.015l0.035-0.126c0.146-0.498,0.357-1.13,0.631-1.885c0.271-0.704,0.561-1.46,0.908-2.312 c0.302-0.011,0.604-0.017,0.88-0.023c0.676-0.009,1.375-0.009,2.06,0c0.329,0.007,0.646,0.013,0.965,0.023 c0.121,0.326,0.271,0.675,0.417,1.033l0.472,1.17c0.163,0.387,0.297,0.752,0.437,1.101c0.128,0.35,0.219,0.649,0.31,0.896 l0.03,0.128l0.135-0.02c0.138-0.021,0.284-0.03,0.41-0.03h0.855c0.14,0,0.265,0.009,0.416,0.03l0.303,0.044l-0.151-0.277 C44.811,50.058,44.63,49.679,44.394,49.187z M40.938,45.179c-0.221,0.011-0.454,0.015-0.667,0.017 c-0.6,0.013-1.16,0.014-1.785-0.004c-0.221-0.011-0.439-0.013-0.647-0.015l1.526-3.583L40.938,45.179z"/><path fill="#5C5151" d="M55.499,39.139c-0.141,0-0.303-0.027-0.514-0.076l-0.213-0.052l0.021,0.215 c0.039,0.927,0.084,1.951,0.1,3.043c0.02,1.078,0.031,2.182,0.031,3.318v1.831c-0.426-0.435-0.916-0.939-1.484-1.54 c-0.666-0.708-1.361-1.458-2.117-2.259c-0.727-0.795-1.482-1.602-2.241-2.42c-0.756-0.819-1.453-1.588-2.119-2.302l-0.046-0.046 h-0.499l0.014,0.166c0.018,0.365,0.039,0.925,0.047,1.667c0,0.745,0,1.637,0,2.679c0,0.358,0,0.761-0.014,1.215 c-0.016,0.455-0.016,0.921-0.047,1.401c-0.005,0.472-0.029,0.948-0.061,1.425c-0.029,0.475-0.058,0.921-0.064,1.323 c-0.026,0.406-0.057,0.754-0.087,1.044c-0.03,0.312-0.043,0.493-0.061,0.584l-0.048,0.212l0.222-0.024 c0.341-0.037,0.796-0.042,1.128,0l0.201,0.024l-0.02-0.197c-0.015-0.084-0.029-0.245-0.029-0.484 c-0.023-0.242-0.031-0.529-0.034-0.853l-0.034-1.054c-0.023-0.378-0.023-0.755-0.023-1.12l-0.029-1.059c0-0.333,0-0.616,0-0.844 c0-0.877,0-1.565,0.021-2.078c0.009-0.317,0.009-0.602,0.009-0.84c1.332,1.404,2.655,2.819,3.968,4.235 c1.42,1.516,2.752,3.006,3.994,4.429l0.033,0.052h0.455v-0.692c0-0.262-0.002-0.568-0.004-0.918c0-0.355,0-0.736-0.012-1.141 l-0.02-1.212c0-0.401,0-0.781,0-1.154v-0.973c0-0.314,0-0.727,0.031-1.244c0.016-0.524,0.035-1.054,0.061-1.595 c0.029-0.538,0.061-1.051,0.09-1.523c0.031-0.478,0.055-0.829,0.066-1.071l0.025-0.223l-0.213,0.057 C55.772,39.112,55.62,39.139,55.499,39.139z"/><path fill="#5C5151" d="M67.286,49.187c-0.223-0.498-0.467-1.067-0.738-1.701c-0.277-0.633-0.576-1.319-0.891-2.053l-0.072-0.149 c-0.279-0.692-0.582-1.38-0.877-2.08c-0.311-0.748-0.613-1.489-0.916-2.218l-0.891-2.135h-0.52l-0.043,0.091 c-0.846,1.938-1.684,3.847-2.51,5.721c-0.828,1.854-1.695,3.757-2.574,5.659l-0.121,0.253l0.275-0.033 c0.361-0.038,0.816-0.038,1.178,0l0.121,0.015l0.043-0.127c0.139-0.493,0.352-1.125,0.623-1.884 c0.273-0.729,0.576-1.506,0.908-2.312c0.303-0.011,0.605-0.017,0.887-0.023c0.666-0.011,1.373-0.009,2.063,0 c0.318,0.007,0.641,0.013,0.955,0.023c0.123,0.326,0.271,0.675,0.424,1.033l0.473,1.17c0.16,0.387,0.295,0.752,0.434,1.101 c0.123,0.35,0.221,0.65,0.305,0.893l0.031,0.131l0.137-0.02c0.137-0.021,0.285-0.03,0.406-0.03h0.859 c0.141,0,0.264,0.009,0.412,0.03l0.305,0.043l-0.148-0.276C67.696,50.054,67.515,49.673,67.286,49.187z M63.825,45.179 c-0.215,0.011-0.455,0.015-0.668,0.017c-0.598,0.013-1.152,0.014-1.785-0.004c-0.215-0.011-0.436-0.013-0.645-0.015l1.527-3.583 L63.825,45.179z"/><path fill="#5C5151" d="M76.909,49.618c-0.248-0.293-0.514-0.611-0.791-0.961c-0.277-0.355-0.576-0.724-0.879-1.104 c-0.303-0.389-0.592-0.755-0.879-1.11c-0.275-0.352-0.537-0.674-0.76-0.962c-0.148-0.186-0.271-0.347-0.365-0.48 c0.244-0.049,0.516-0.125,0.805-0.23c0.396-0.137,0.771-0.334,1.127-0.591c0.346-0.254,0.645-0.578,0.887-0.969 c0.246-0.396,0.375-0.878,0.375-1.422c0-0.515-0.1-0.951-0.285-1.299c-0.189-0.348-0.455-0.63-0.787-0.845 c-0.324-0.207-0.697-0.361-1.129-0.453c-0.719-0.146-1.535-0.158-2.277-0.093c-0.592,0.057-1.225,0.049-1.83,0.017 c-0.303-0.017-0.605-0.035-0.928-0.052l-0.168-0.015l0.006,0.177c0.029,0.716,0.061,1.415,0.09,2.105 c0.031,0.683,0.033,1.384,0.033,2.096v2.797c0,0.71-0.002,1.422-0.033,2.108c-0.029,0.694-0.061,1.376-0.09,2.047l-0.01,0.179 l0.178-0.015c0.482-0.039,1.076-0.039,1.561,0l0.18,0.015l-0.002-0.179c-0.029-0.671-0.061-1.353-0.09-2.047 c-0.031-0.686-0.039-1.397-0.039-2.108v-1.029h0.396c0.33,0.348,0.699,0.771,1.09,1.252c0.408,0.515,0.822,1.032,1.219,1.548 c0.391,0.498,0.754,0.989,1.092,1.461c0.332,0.451,0.578,0.792,0.75,1.02l0.051,0.079l0.1-0.013c0.131-0.021,0.281-0.03,0.441-0.03 h0.959c0.154,0,0.318,0.009,0.475,0.03l0.459,0.061l-0.334-0.326C77.358,50.128,77.171,49.916,76.909,49.618z M73.698,43.79 c-0.279,0.179-0.609,0.305-0.945,0.377c-0.576,0.122-1.15,0.122-1.602,0.094c-0.121-0.005-0.24-0.019-0.344-0.036v-0.799 c0-0.621,0.008-1.19,0.037-1.747l0.057-1.641c0.135-0.013,0.309-0.026,0.488-0.037c0.43-0.03,1.094-0.076,1.76,0.061 c0.271,0.054,0.533,0.156,0.758,0.307c0.238,0.15,0.42,0.348,0.568,0.606c0.133,0.252,0.215,0.578,0.215,0.972 c0,0.457-0.092,0.837-0.273,1.127C74.222,43.375,73.991,43.613,73.698,43.79z"/><path fill="#5C5151" d="M88.72,50.309c-0.137-0.255-0.318-0.636-0.533-1.123c-0.229-0.498-0.48-1.067-0.754-1.701 c-0.271-0.633-0.574-1.319-0.879-2.053c-0.322-0.739-0.633-1.48-0.945-2.229c-0.316-0.748-0.627-1.489-0.93-2.218L83.8,38.851 h-0.52l-0.047,0.091c-0.848,1.938-1.682,3.847-2.52,5.721c-0.818,1.854-1.689,3.757-2.568,5.659l-0.119,0.253l0.283-0.033 c0.348-0.038,0.807-0.042,1.164,0l0.133,0.015l0.047-0.127c0.129-0.493,0.34-1.125,0.619-1.884 c0.281-0.748,0.586-1.522,0.902-2.312c0.301-0.011,0.598-0.017,0.893-0.023c0.672-0.011,1.369-0.009,2.064,0 c0.313,0.007,0.637,0.013,0.941,0.023c0.131,0.326,0.271,0.675,0.424,1.033l0.482,1.17c0.152,0.387,0.297,0.752,0.426,1.101 c0.129,0.362,0.236,0.653,0.303,0.893l0.037,0.131l0.141-0.02c0.137-0.021,0.275-0.03,0.402-0.03h0.869 c0.123,0,0.254,0.009,0.402,0.03l0.309,0.044L88.72,50.309z M84.718,45.179c-0.221,0.011-0.453,0.015-0.674,0.017 c-0.578,0.013-1.15,0.014-1.781-0.004c-0.217-0.011-0.43-0.013-0.641-0.015l1.531-3.583L84.718,45.179z"/></g></svg>